<?xml version="1.0" encoding="utf-8"?>
<!-- Generator: Adobe Illustrator 23.0.2, SVG Export Plug-In . SVG Version: 6.00 Build 0)  -->
<svg version="1.1" id="Layer_1" xmlns="http://www.w3.org/2000/svg" xmlns:xlink="http://www.w3.org/1999/xlink" x="0px" y="0px"
	 viewBox="0 0 900 900" style="enable-background:new 0 0 900 900;" xml:space="preserve">
<style type="text/css">
	.st0{stroke:#000000;stroke-width:20;stroke-miterlimit:10;}
</style>
<path d="M427.5,512c-57,249-136,340-255,340c-56,0-97-24-97-68c0-38,43-50,60-63l15,1c3,59,23,98,53,98c35,0,51-37,83-174l103-447
	l-59-33l3-15l172-43h15L427.5,512z"/>
<path d="M700.49,544c0-75-186-163-186-279c0-86,77-157,180-157c77,0,129,33,129,88c0,30-12.99,37-43.99,61l-12.01-2
	c-20-60-58-109-115-109c-41,0-64,26-64,65c0,66,190,166,190,276c0,100-87,165-185,165c-94,0-172.99-49-172.99-111
	c0-32,36.99-57,65.99-69h6c19,84,66,142,134,142C674.49,614,700.49,589,700.49,544z"/>
<polyline class="st0" points="773.5,249 511.9,457.82 126.5,740 "/>
</svg>
